# xmcd CD database file
#
# Track frame offsets:
#	150
#	18125
#	35700
#	53988
#	75735
#	93658
#	114608
#	128223
#	146100
#	162383
#	176125
#	192033
#
# Disc length: 2835 seconds
#
# Revision: 0
# Processed by: cddbd v1.5.1PL0 Copyright (c) Steve Scherf et al.
# Submitted via: CDex 1.51
#
DISCID=a70b110c
DTITLE=氷川きよし - 演歌名曲コレクション5
DYEAR=2005
DGENRE=Vocal
TTITLE0=初恋列車
TTITLE1=北行き最終便
TTITLE2=東京霧笛
TTITLE3=口笛の港
TTITLE4=夏子の海峡
TTITLE5=いつもみんなで手をつなごう
TTITLE6=黒い花びら
TTITLE7=長崎の女
TTITLE8=達者でナ
TTITLE9=街のサンドイッチマン
TTITLE10=東京ラプソディ
TTITLE11=浅草パラダイス
EXTD=YEAR: 2005.05.18
EXTT0=
EXTT1=
EXTT2=
EXTT3=
EXTT4=
EXTT5=
EXTT6=
EXTT7=
EXTT8=
EXTT9=
EXTT10=
EXTT11=
PLAYORDER=
